PathFileType	4	(X/Y/Z)	pose_F01_0-89.trc
DataRate	CameraRate	NumFrames	NumMarkers	Units	OrigDataRate	OrigDataStartFrame	OrigNumFrames
30	30	11	21	m	30	63	89
Frame#	Time	CHip			RHip			RKnee			RAnkle			RBigToe			RSmallToe			RHeel			LHip			LKnee			LAnkle			LBigToe			LSmallToe			LHeel			Neck			Nose			RShoulder			RElbow			RWrist			LShoulder			LElbow			LWrist			
		X1	Y1	Z1	X2	Y2	Z2	X3	Y3	Z3	X4	Y4	Z4	X5	Y5	Z5	X6	Y6	Z6	X7	Y7	Z7	X8	Y8	Z8	X9	Y9	Z9	X10	Y10	Z10	X11	Y11	Z11	X12	Y12	Z12	X13	Y13	Z13	X14	Y14	Z14	X15	Y15	Z15	X16	Y16	Z16	X17	Y17	Z17	X18	Y18	Z18	X19	Y19	Z19	X20	Y20	Z20	X21	Y21	Z21	
63	2.1	-0.256145196208222	1.8372797939374448	-0.5321078682102975	-0.2725585996461976	1.827566914587034	-0.46515340059266297	-0.24607690018723224	1.7173037171630696	-0.4052565097475197													-0.24096691302150686	1.8350512130647743	-0.599900714467302	-0.2233392499016656	1.7155138990527528	-0.4712341201600585	-0.23374462180958266	1.624813836111612	-0.4690228441007768	-0.23835198179638853	1.587645000703577	-0.5101649786184993	-0.23807523367393768	1.5418572427586876	-0.5902069086245111				-0.250056227162507	1.9859490398986899	-0.5425435551517109	-0.25671063964225865	2.060758422954337	-0.5980620830209005	-0.2709568198202554	1.98428746767522	-0.44687508092039846	-0.2849386068832276	1.9004900854577607	-0.4147903777806911	-0.2959823111347992	1.8266133183608635	-0.3757942838213148	-0.2210563728129878	1.9920199898510187	-0.6403244223554995	-1.280440185418038	1.8465400521693487	0.3612519516283068	-1.212260890656603	1.8242727027905752	0.17107835388586445
64	2.1333333333333333	-0.25857552088052066	1.831954505226374	-0.5291323566490284	-0.27362649794367705	1.8250906704134806	-0.46365260112900064	-0.24607690018723224	1.7173037171630696	-0.4052565097475197													-0.24103341699986391	1.833663896158488	-0.5997509817442088	-0.2233392499016656	1.7155138990527528	-0.4712341201600585	-0.23374462180958266	1.624813836111612	-0.4690228441007768	-0.23835198179638853	1.587645000703577	-0.5101649786184993	-0.23807523367393768	1.5418572427586876	-0.5902069086245111				-0.2491979208983921	1.9857650525357946	-0.5394482981181796	-0.2547424907523172	2.061995219581043	-0.591740423045081	-0.2710307407908146	1.9840351571648316	-0.44666777408067293	-0.2839264829188482	1.9005546850919424	-0.4114221550581079	-0.2959823111347992	1.8266133183608635	-0.3757942838213148	-0.22114412886815088	1.9916060811092449	-0.6401286214288731	-1.2965354531292397	1.8451374148318997	0.3932707765727869	-1.2046646662934313	1.8093945148409294	0.1709924436017285
65	2.1666666666666665	-0.2577444902889772	1.829971823836832	-0.5256891474441081	-0.27359242484396534	1.8245244799796052	-0.46360385117069297	-0.24607690018723224	1.7173037171630696	-0.4052565097475197													-0.2410833388379061	1.8306390853137056	-0.5993358599761637	-0.2233392499016656	1.7155138990527528	-0.4712341201600585	-0.23374462180958266	1.624813836111612	-0.4690228441007768	-0.23835198179638853	1.587645000703577	-0.5101649786184993	-0.23807523367393768	1.5418572427586876	-0.5902069086245111				-0.24917538729935013	1.985886990786108	-0.5393586061371871	-0.25585769044136264	2.0626353403845075	-0.5869060065540674	-0.2709526635132861	1.9828229423921433	-0.4461784128456863	-0.2839938989952016	1.898129389236601	-0.41097595136869236	-0.2959823111347992	1.8266133183608635	-0.3757942838213148	-0.22221388514962073	1.9927034159039296	-0.6350382784568377	-1.2949376239214603	1.8411293910206625	0.3982283664799561	-0.715280653950364	1.844940610473544	-0.29182643222989224
66	2.2	-0.2574981650124424	1.8364310673712319	-0.526501131663467	-0.273526965394108	1.8293919684266726	-0.4642561435642891	-0.24607690018723224	1.7173037171630696	-0.4052565097475197													-0.24285682251524535	1.836722761095568	-0.5979549222580609	-0.2233392499016656	1.7155138990527528	-0.4712341201600585	-0.23374462180958266	1.624813836111612	-0.4690228441007768	-0.23835198179638853	1.587645000703577	-0.5101649786184993	-0.23807523367393768	1.5418572427586876	-0.5902069086245111				-0.25117712806319703	1.9859754489343473	-0.5370909909093039	-0.2590525226334071	2.0618063169734198	-0.579538115684357	-1.7808902587262356	1.8912939482609274	1.2243928748523234	-0.28593931482118334	1.8993043024580267	-0.40909339916814186	-0.2959823111347992	1.8266133183608635	-0.3757942838213148	-0.22437144968018147	1.9924551981036611	-0.6327437889435356	-1.2905907391740021	1.8312936091191625	0.4017926472224401	-0.22589664160729683	1.8804867061061588	-0.754645308061513
67	2.2333333333333334	-0.25980751826283577	1.833269424635111	-0.523996151103732	-0.27583565598122145	1.8292021286376794	-0.46201436354859887	-0.24607690018723224	1.7173037171630696	-0.4052565097475197													-0.2432170697645598	1.8340021730388936	-0.5975548191131115	-0.2233392499016656	1.7155138990527528	-0.4712341201600585	-0.23374462180958266	1.624813836111612	-0.4690228441007768	-0.23835198179638853	1.587645000703577	-0.5101649786184993	-0.23807523367393768	1.5418572427586876	-0.5902069086245111				-0.2512246282112658	1.9859817683553134	-0.5369280980373697	-0.2581365238117627	2.0625297601202868	-0.5763642822769157	-1.7901950007466458	1.8912215562613228	1.2412600528535271	-0.2847641669440204	1.8979224623927051	-0.40554659360673007	-0.2959823111347992	1.8266133183608635	-0.3757942838213148	-0.2265861458909244	1.9913034174193784	-0.6304358341592221	-0.2056717249664558	1.9248401562299937	-0.6905771216151859	-0.2224490165111453	1.8628973173202288	-0.7284814443086405
68	2.2666666666666666	-0.2591776457330347	1.83467993229148	-0.5224773366661797	-0.27616712113124486	1.8309348684555702	-0.45954836847814173	-0.24607690018723224	1.7173037171630696	-0.4052565097475197													-0.24456281553350298	1.8351571321067388	-0.5958385519352207	-0.2233392499016656	1.7155138990527528	-0.4712341201600585	-0.23374462180958266	1.624813836111612	-0.4690228441007768	-0.23835198179638853	1.587645000703577	-0.5101649786184993	-0.23807523367393768	1.5418572427586876	-0.5902069086245111				-0.2531464773253002	1.9857445816478536	-0.5348942729583605	-0.2601171378317484	2.0624827878049414	-0.5741392675905895	-1.7903155317625425	1.8912364955705778	1.2414721350791715	-0.28358916100704484	1.8988148660483182	-0.40242316287616153	-0.2959823111347992	1.8266133183608635	-0.3757942838213148	-0.22661890455942105	1.9898665972331109	-0.6300890823797707	-0.2081657470682911	1.9159915679173463	-0.6788541551043751	-0.21799016986566774	1.8451420041944036	-0.7077806978860701
69	2.3	-0.2585477732032337	1.8360904399478493	-0.5209585222286275	-0.2764985862812683	1.8326676082734608	-0.45708237340768465	-0.24607690018723224	1.7173037171630696	-0.4052565097475197													-0.24611661619100633	1.837094217505778	-0.5903111905303663	-0.2233392499016656	1.7155138990527528	-0.4712341201600585	-0.23374462180958266	1.624813836111612	-0.4690228441007768	-0.23835198179638853	1.587645000703577	-0.5101649786184993	-0.23807523367393768	1.5418572427586876	-0.5902069086245111				-0.2531600046277551	1.9861197910895139	-0.534807443094074	-0.2601498304373226	2.0625735448725107	-0.5740229021428176	-1.790516238932541	1.8912861806503702	1.2418535835338245	-0.2836505444273582	1.900358644728184	-0.4026223837704508	-0.299740643197272	1.8246134071047453	-0.3944135636479654	-0.22666670209794623	1.9890515274857912	-0.6301986443982973	-0.20938601965962717	1.9126932131465733	-0.6606778748565081	-0.2156467677203759	1.843280603846978	-0.6771873324665423
70	2.3333333333333335	-0.25864052864539305	1.831219522622205	-0.5203086172994563	-0.2765344221951316	1.8275295151742124	-0.45638872569071903	-0.24607690018723224	1.7173037171630696	-0.4052565097475197													-0.24425167136105427	1.832487789882921	-0.5919181207052948	-0.2233392499016656	1.7155138990527528	-0.4712341201600585	-0.23374462180958266	1.624813836111612	-0.4690228441007768	-0.23835198179638853	1.587645000703577	-0.5101649786184993	-0.23807523367393768	1.5418572427586876	-0.5902069086245111				-0.25327566089852466	1.9849028318332094	-0.5348007477599432	-0.2593063008241202	2.0624818710603834	-0.5710979483726973	-1.7904404302134418	1.8912567184630704	1.2417301899816189	-0.28375035437389845	1.8999343396417556	-0.40262984913934713	-0.2979747016003797	1.8223788265877334	-0.39631774858084723	-0.2266797003984478	1.9890158702229968	-0.6300851989517058	-0.21255040219039043	1.9132917525481468	-0.6517570281271299	-0.22398242177037786	1.841722528162389	-0.6511906708805945
71	2.3666666666666667	-0.2610153909765664	1.8316800293400932	-0.5182385325807066	-0.2769926476535304	1.8283615378049152	-0.4564920067950514	-0.24607690018723224	1.7173037171630696	-0.4052565097475197													-0.24679458061844933	1.8335160872019451	-0.5896183323974566	-0.2233392499016656	1.7155138990527528	-0.4712341201600585	-0.23374462180958266	1.624813836111612	-0.4690228441007768	-0.23835198179638853	1.587645000703577	-0.5101649786184993	-0.23807523367393768	1.5418572427586876	-0.5902069086245111				-0.25217584669728876	1.9869405679778527	-0.5315821356416501	-0.2612815750153485	2.063607859853651	-0.5694761162934244	-1.7903539237967334	1.8912752575346472	1.2415397207753116	-0.2839637358993522	1.9004108225664265	-0.4028497236626817	-0.29812674278693796	1.824887455673145	-0.39669923490857895	-0.2268852665297623	1.991362549165086	-0.6218776931062455	-0.21571478472115366	1.9138902919497205	-0.6428361813977517	-0.22257879603663833	1.8404780505943656	-0.6487272965850341
72	2.4	-0.25770424386737434	1.8334454836330705	-0.5175195186991872	-0.2765684957470682	1.8305747669712735	-0.45675537674339917	-0.24607690018723224	1.7173037171630696	-0.4052565097475197													-0.2444906275591412	1.8362618582060384	-0.5836576984535627	-0.2233392499016656	1.7155138990527528	-0.4712341201600585	-0.23374462180958266	1.624813836111612	-0.4690228441007768	-0.23835198179638853	1.587645000703577	-0.5101649786184993	-0.23807523367393768	1.5418572427586876	-0.5902069086245111				-0.25125463963695627	1.987073656719837	-0.5284010690184515	-0.2612479586614994	2.0622964586256565	-0.5690111517303145	-0.2756772703652296	1.9851602755751419	-0.43676967008630363	-0.28612646119925117	1.9002299491067154	-0.400801322202447	-0.2983352789009879	1.8237896338675685	-0.39649214973980174	-0.22599805648011737	1.9902257944712274	-0.6183437406098082	-0.21887916725191692	1.914488831351294	-0.6339153346683735	-0.22117517030289882	1.8392335730263423	-0.6462639222894739
73	2.433333333333333	-0.25848866195075115	1.825987564373564	-0.5112479622640824	-0.27548646201989274	1.8249307637179175	-0.45250706981761585	-0.24607690018723224	1.7173037171630696	-0.4052565097475197													-0.24049704438349245	1.827988373835502	-0.5699083289946271	-0.2233392499016656	1.7155138990527528	-0.4712341201600585	-0.23374462180958266	1.624813836111612	-0.4690228441007768	-0.23835198179638853	1.587645000703577	-0.5101649786184993	-0.23807523367393768	1.5418572427586876	-0.5902069086245111				-0.2511618994028486	1.986643325523778	-0.519935946894887	-0.26124982736611185	2.062282341198391	-0.5689533422162095	-1.8092479651770133	1.8914372705213942	1.2762784116876484	-0.2878030188719339	1.8967966287171647	-0.3981924866092007	-0.3001469251855204	1.8235941620916232	-0.3943278886200565	-0.22415992079450767	1.9894777657893727	-0.6120265738980113	-0.2178696610645495	1.9070717524223306	-0.6309082392935546	-0.2183948449924544	1.8342085374077743	-0.6450635591041257
